Coordinates
version=1
nRows=12
nColumns=24
inDegrees=yes

Units are S.I. units (second, meters, Newtons, ...)
Angles are in degrees.

endheader
time	pelvis_tilt	pelvis_list	pelvis_rotation	pelvis_tx	pelvis_ty	pelvis_tz	hip_flexion_r	hip_adduction_r	hip_rotation_r	knee_angle_r	ankle_angle_r	subtalar_angle_r	mtp_angle_r	hip_flexion_l	hip_adduction_l	hip_rotation_l	knee_angle_l	ankle_angle_l	subtalar_angle_l	mtp_angle_l	lumbar_extension	lumbar_bending	lumbar_rotation
      1.31700000	     -4.76134819	      3.46539369	     -3.01467923	      0.25926682	      0.90622970	      0.32193349	     18.94800405	     -8.30602891	    -10.81815517	    -70.82212629	     -3.20835321	      4.19086610	     10.95962415	     15.40630918	      6.81216210	     -3.75496804	    -17.98050595	      8.39334421	     -5.68525999	      4.43826350	     -1.65417762	     -5.52897466	      3.58981726
      1.32116667	     -4.80979749	      3.29141345	     -2.89443832	      0.26432870	      0.90722019	      0.32176505	     19.59621548	     -8.11732296	    -11.02492972	    -70.53107894	     -2.60818436	      3.98245893	     10.91847754	     14.85376325	      6.68176831	     -3.61340604	    -17.50071445	      8.42240435	     -5.54869739	      4.44113357	     -1.61087881	     -5.34677919	      3.51564686
      1.32533333	     -4.81365297	      3.11058302	     -2.73537903	      0.26937087	      0.90826394	      0.32150606	     20.16652267	     -7.94305121	    -11.27793198	    -70.16813867	     -2.02138262	      3.85020958	     10.61756594	     14.23502790	      6.57131326	     -3.33739286	    -16.97625204	      8.41453797	     -5.56056003	      4.44473018	     -1.66378272	     -5.13045039	      3.07573748
      1.32950000	     -4.84237534	      2.90533297	     -2.58149535	      0.27442113	      0.90924672	      0.32130349	     20.74131286	     -7.72032473	    -11.51997631	    -69.71952620	     -1.45163563	      3.69329141	     10.57630647	     13.66881708	      6.40939916	     -3.15920130	    -16.50997987	      8.46375308	     -5.43898626	      4.44797396	     -1.64489177	     -4.89933904	      2.99999982
      1.33366667	     -4.83524287	      2.68525821	     -2.40266690	      0.27946268	      0.91026227	      0.32105133	     21.24837813	     -7.49506536	    -11.79789570	    -69.19607232	     -0.90556504	      3.56247979	     10.51991736	     13.06063913	      6.23989069	     -2.93902621	    -16.03393372	      8.49079857	     -5.35050675	      4.45043429	     -1.69637540	     -4.64219466	      2.80468740
      1.33783333	     -4.77929885	      2.47305698	     -2.22248627	      0.28451442	      0.91133442	      0.32076679	     21.68296070	     -7.28597083	    -12.07570413	    -68.59822550	     -0.45125404	      3.47580571	     10.38172709	     12.36985951	      6.09087111	     -2.64710925	    -15.49021861	      8.53448965	     -5.34561931	      4.45284391	     -1.81671054	     -4.38640221	      2.37490244
      1.34200000	     -4.75559964	      2.26091952	     -2.03007399	      0.28953145	      0.91230742	      0.32049133	     22.14017664	     -7.07122589	    -12.36050310	    -67.94827164	      0.03944849	      3.36190098	     10.24546937	     11.73811981	      5.92946009	     -2.39414095	    -14.98495961	      8.53626828	     -5.30842719	      4.45415751	     -1.88505597	     -4.13236186	      2.08213813
      1.34616667	     -4.71415908	      2.04413023	     -1.83227648	      0.29454689	      0.91327550	      0.32021642	     22.55653190	     -6.84911011	    -12.64661497	    -67.22546770	      0.49234153	      3.26080684	     10.11294101	     11.08661670	      5.75874787	     -2.14120879	    -14.47588303	      8.55036425	     -5.25946984	      4.45544140	     -1.97356148	     -3.88783051	      1.79224557
      1.35033333	     -4.66715293	      1.84034306	     -1.62114723	      0.29954396	      0.91420072	      0.31992971	     22.95290013	     -6.64514291	    -12.94206610	    -66.45275160	      0.95331187	      3.14699047	      9.87886271	     10.43060774	      5.60075956	     -1.87206722	    -13.95776143	      8.51126831	     -5.24596736	      4.45606036	     -2.07179307	     -3.67026645	      1.40773541
      1.35450000	     -4.62135903	      1.59823083	     -1.39924776	      0.30453339	      0.91509668	      0.31964787	     23.31905812	     -6.39559619	    -13.25549924	    -65.59080617	      1.36894249	      3.06760721	      9.80313109	      9.80299251	      5.38858454	     -1.65086996	    -13.49912886	      8.54459014	     -5.15122602	      4.45790802	     -2.15703339	     -3.39083008	      1.25286510
      1.35866667	     -4.52485973	      1.38813549	     -1.18799500	      0.30952406	      0.91600981	      0.31934543	     23.62492903	     -6.18605018	    -13.55298846	    -64.68721070	      1.71856765	      2.96924173	      9.66872633	      9.08891779	      5.21521562	     -1.39250333	    -12.96528118	      8.58177804	     -5.10153192	      4.45959873	     -2.31594288	     -3.13621543	      0.88688491
      1.36283333	     -4.44917536	      1.18668633	     -0.95224246	      0.31448721	      0.91683762	      0.31903775	     23.93529193	     -5.98901947	    -13.86974588	    -63.73291920	      2.10941252	      2.86501319	      9.43512499	      8.41540316	      5.04567839	     -1.12834848	    -12.45493566	      8.54077336	     -5.09277652	      4.45965312	     -2.43784078	     -2.90657865	      0.48628529
